<svg width="54" height="17" viewBox="0 0 54 17" fill="none" xmlns="http://www.w3.org/2000/svg">
<path d="M4.08713 6.55747L2.21312 6.21941C2.4238 5.46491 2.78635 4.90638 3.30078 4.54383C3.81522 4.18128 4.57952 4 5.59369 4C6.51477 4 7.20068 4.11024 7.65142 4.33071C8.10216 4.54628 8.41817 4.82309 8.59945 5.16115C8.78562 5.49431 8.87871 6.10918 8.87871 7.00576L8.85666 9.41625C8.85666 10.1022 8.88851 10.6092 8.9522 10.9375C9.02079 11.2609 9.14573 11.6087 9.327 11.9811H7.28397C7.23007 11.8439 7.16393 11.6406 7.08554 11.3711C7.05125 11.2486 7.02675 11.1678 7.01205 11.1286C6.6593 11.4715 6.28205 11.7288 5.8803 11.9002C5.47855 12.0717 5.04986 12.1574 4.59421 12.1574C3.79072 12.1574 3.15625 11.9394 2.69081 11.5034C2.23027 11.0673 2 10.5162 2 9.84984C2 9.4089 2.10534 9.01695 2.31601 8.674C2.52668 8.32614 2.82064 8.06158 3.1979 7.8803C3.58005 7.69412 4.12877 7.53244 4.84408 7.39526C5.80926 7.21398 6.47802 7.04496 6.85037 6.88818V6.6824C6.85037 6.28555 6.75239 6.00384 6.55641 5.83726C6.36044 5.66578 5.99053 5.58005 5.4467 5.58005C5.07925 5.58005 4.79264 5.65354 4.58687 5.80052C4.38109 5.9426 4.21451 6.19492 4.08713 6.55747ZM6.85037 8.23305C6.58581 8.32124 6.16691 8.42658 5.59369 8.54906C5.02046 8.67155 4.64566 8.79158 4.46928 8.90917C4.19982 9.10024 4.06508 9.34276 4.06508 9.63672C4.06508 9.92578 4.17287 10.1757 4.38844 10.3863C4.60401 10.597 4.87838 10.7023 5.21154 10.7023C5.58389 10.7023 5.93909 10.5798 6.27715 10.3349C6.52702 10.1487 6.69114 9.92088 6.76953 9.65142C6.82343 9.47504 6.85037 9.13944 6.85037 8.6446V8.23305Z" fill="black"/>
<path d="M9.86437 4.17638H11.7678V5.24199C12.4488 4.414 13.2596 4 14.2003 4C14.7 4 15.1336 4.10289 15.5011 4.30866C15.8685 4.51443 16.1699 4.82554 16.405 5.24199C16.748 4.82554 17.1179 4.51443 17.5147 4.30866C17.9116 4.10289 18.3354 4 18.7861 4C19.3593 4 19.8444 4.11758 20.2412 4.35275C20.6381 4.58302 20.9345 4.92353 21.1305 5.37427C21.2725 5.70743 21.3436 6.24636 21.3436 6.99106V11.9811H19.2785V7.5202C19.2785 6.7461 19.2075 6.24636 19.0654 6.02099C18.8743 5.72703 18.5803 5.58005 18.1835 5.58005C17.8944 5.58005 17.6225 5.66823 17.3677 5.84461C17.113 6.02099 16.9293 6.28066 16.8166 6.62361C16.7039 6.96167 16.6475 7.49815 16.6475 8.23305V11.9811H14.5825V7.70392C14.5825 6.94452 14.5457 6.45458 14.4722 6.23411C14.3987 6.01364 14.2836 5.84951 14.1268 5.74172C13.9749 5.63394 13.7667 5.58005 13.5021 5.58005C13.1837 5.58005 12.8971 5.66578 12.6423 5.83726C12.3875 6.00874 12.2038 6.25616 12.0911 6.57952C11.9833 6.90287 11.9294 7.43936 11.9294 8.18896V11.9811H9.86437V4.17638Z" fill="black"/>
<path d="M24.0489 6.55747L22.1749 6.21941C22.3856 5.46491 22.7481 4.90638 23.2626 4.54383C23.777 4.18128 24.5413 4 25.5555 4C26.4766 4 27.1625 4.11024 27.6132 4.33071C28.0639 4.54628 28.38 4.82309 28.5612 5.16115C28.7474 5.49431 28.8405 6.10918 28.8405 7.00576L28.8184 9.41625C28.8184 10.1022 28.8503 10.6092 28.914 10.9375C28.9826 11.2609 29.1075 11.6087 29.2888 11.9811H27.2458C27.1919 11.8439 27.1257 11.6406 27.0473 11.3711C27.013 11.2486 26.9885 11.1678 26.9738 11.1286C26.6211 11.4715 26.2438 11.7288 25.8421 11.9002C25.4403 12.0717 25.0116 12.1574 24.556 12.1574C23.7525 12.1574 23.118 11.9394 22.6526 11.5034C22.1921 11.0673 21.9618 10.5162 21.9618 9.84984C21.9618 9.4089 22.0671 9.01695 22.2778 8.674C22.4885 8.32614 22.7824 8.06158 23.1597 7.8803C23.5418 7.69412 24.0906 7.53244 24.8059 7.39526C25.771 7.21398 26.4398 7.04496 26.8122 6.88818V6.6824C26.8122 6.28555 26.7142 6.00384 26.5182 5.83726C26.3222 5.66578 25.9523 5.58005 25.4085 5.58005C25.041 5.58005 24.7544 5.65354 24.5487 5.80052C24.3429 5.9426 24.1763 6.19492 24.0489 6.55747ZM26.8122 8.23305C26.5476 8.32124 26.1287 8.42658 25.5555 8.54906C24.9822 8.67155 24.6074 8.79158 24.4311 8.90917C24.1616 9.10024 24.0269 9.34276 24.0269 9.63672C24.0269 9.92578 24.1347 10.1757 24.3502 10.3863C24.5658 10.597 24.8402 10.7023 25.1733 10.7023C25.5457 10.7023 25.9009 10.5798 26.2389 10.3349C26.4888 10.1487 26.6529 9.92088 26.7313 9.65142C26.7852 9.47504 26.8122 9.13944 26.8122 8.6446V8.23305Z" fill="black"/>
<path d="M29.15 11.9811V10.3716L32.075 7.01311C32.5551 6.46438 32.9103 6.07488 33.1406 5.84461C32.9005 5.85931 32.5845 5.86911 32.1925 5.87401L29.4367 5.88871V4.17638H35.8891V5.63884L32.9054 9.07819L31.8545 10.2173C32.4277 10.183 32.7829 10.1659 32.9201 10.1659H36.1169V11.9811H29.15Z" fill="black"/>
<path d="M36.1252 7.96849C36.1252 7.28258 36.2942 6.61871 36.6323 5.97689C36.9703 5.33508 37.448 4.84514 38.0653 4.50708C38.6875 4.16903 39.3808 4 40.1451 4C41.3258 4 42.2935 4.3846 43.048 5.1538C43.8025 5.9181 44.1797 6.88573 44.1797 8.05668C44.1797 9.23742 43.7976 10.2173 43.0333 10.9963C42.2739 11.7704 41.316 12.1574 40.1598 12.1574C39.4445 12.1574 38.761 11.9958 38.1094 11.6724C37.4627 11.3491 36.9703 10.8763 36.6323 10.254C36.2942 9.62692 36.1252 8.86507 36.1252 7.96849ZM38.2417 8.07872C38.2417 8.85282 38.4254 9.44565 38.7929 9.85719C39.1603 10.2687 39.6135 10.4745 40.1524 10.4745C40.6914 10.4745 41.1421 10.2687 41.5047 9.85719C41.8721 9.44565 42.0559 8.84792 42.0559 8.06402C42.0559 7.29972 41.8721 6.7118 41.5047 6.30025C41.1421 5.88871 40.6914 5.68293 40.1524 5.68293C39.6135 5.68293 39.1603 5.88871 38.7929 6.30025C38.4254 6.7118 38.2417 7.30462 38.2417 8.07872Z" fill="black"/>
<path d="M52 11.9811H49.9349V7.99788C49.9349 7.15519 49.8908 6.61136 49.8026 6.36639C49.7144 6.11653 49.5699 5.923 49.369 5.78582C49.1731 5.64864 48.9354 5.58005 48.6562 5.58005C48.2985 5.58005 47.9776 5.67803 47.6935 5.87401C47.4093 6.06998 47.2133 6.32965 47.1055 6.65301C47.0026 6.97637 46.9512 7.57409 46.9512 8.44618V11.9811H44.8861V4.17638H46.8042V5.32283C47.4852 4.44094 48.3426 4 49.3764 4C49.832 4 50.2485 4.08329 50.6257 4.24987C51.003 4.41155 51.2871 4.61977 51.4782 4.87454C51.6742 5.1293 51.8089 5.41837 51.8824 5.74172C51.9608 6.06508 52 6.52807 52 7.1307V11.9811Z" fill="black"/>
</svg>
