<svg xmlns="http://www.w3.org/2000/svg" width="20" height="20" viewBox="0 0 20 20">
    <g fill="none" fill-rule="evenodd">
        <g fill="#000" fill-rule="nonzero">
            <g>
                <path d="M19.766 18.634L14.99 13.86c2.703-3.305 2.34-8.15-.827-11.014C10.997-.019 6.14.102 3.12 3.121c-3.019 3.02-3.14 7.876-.276 11.042 2.865 3.166 7.709 3.53 11.014.827l4.775 4.776c.314.303.813.298 1.122-.01.308-.309.313-.808.01-1.122zM8.8 15.2c-3.535 0-6.4-2.865-6.4-6.4s2.865-6.4 6.4-6.4 6.4 2.865 6.4 6.4c-.004 3.533-2.867 6.396-6.4 6.4z" transform="translate(-822 -22) translate(822 22)"/>
            </g>
        </g>
    </g>
</svg>
